<?xml version="1.0" encoding="utf-8"?>
<!-- Generator: Adobe Illustrator 16.0.0, SVG Export Plug-In . SVG Version: 6.00 Build 0)  -->
<!DOCTYPE svg PUBLIC "-//W3C//DTD SVG 1.1//EN" "http://www.w3.org/Graphics/SVG/1.1/DTD/svg11.dtd">
<svg version="1.1" id="Layer_1" xmlns="http://www.w3.org/2000/svg" xmlns:xlink="http://www.w3.org/1999/xlink" x="0px" y="0px"
	 width="412px" height="374px" viewBox="0 0 412 374" enable-background="new 0 0 412 374" xml:space="preserve">
<g enable-background="new    ">
	<path fill="#0000FF" d="M89.624,164.323l16.58-90.518l21.846-3.851l19.768,112.141l-18.608,3.281l-13.607-77.188l-14.712,82.18
		l-13.107,2.311l-41.926-72.196l13.607,77.188l-18.447,3.252L21.248,88.781l21.846-3.851L89.624,164.323z"/>
	<path fill="#0000FF" d="M224.879,71.238l-50.973,8.985l5.191,29.452l47.898-8.444l3.081,17.477l-47.899,8.444l5.221,29.613
		l52.268-9.214l3.139,17.8l-71.04,12.523L151.997,65.733l69.745-12.295L224.879,71.238z"/>
	<path fill="#0000FF" d="M308.726,125.7l16.579-90.518l21.846-3.851l19.769,112.141l-18.61,3.281l-13.606-77.188l-14.711,82.18
		l-13.108,2.311l-41.925-72.196l13.606,77.188l-18.447,3.252L240.35,50.158l21.845-3.851L308.726,125.7z"/>
</g>
<g enable-background="new    ">
	<path fill="#0000FF" d="M175.044,198.318l19.769,112.141l-18.771,3.31l-19.769-112.141L175.044,198.318z"/>
</g>
<g enable-background="new    ">
	<path fill="#0000FF" d="M67.089,332.957l21.55-52.853c-7.373-0.812-13.484-3.462-18.336-7.945
		c-4.85-4.485-7.989-10.772-9.415-18.863c-1.027-5.825-0.864-11.054,0.488-15.687c1.353-4.632,3.622-8.647,6.803-12.045
		c3.184-3.397,7.165-6.211,11.942-8.445c4.78-2.231,10.082-3.862,15.907-4.889l36.248-6.39l19.769,112.141l-18.771,3.309
		l-7.873-44.662l-15.696,2.767l-20.607,49.683L67.089,332.957z M95.578,230.495c-5.285,0.932-9.449,3.029-12.49,6.291
		c-3.038,3.262-4.076,7.641-3.105,13.144c1.027,5.825,3.296,9.708,6.808,11.646c3.513,1.941,8.343,2.367,14.492,1.283l21.037-3.708
		l-5.705-32.364L95.578,230.495z"/>
</g>
<g enable-background="new    ">
	<path fill="#0000FF" d="M297.477,208.741c-0.837-4.746-0.771-9.262,0.197-13.549c0.971-4.285,2.842-8.176,5.618-11.669
		c2.778-3.493,6.531-6.49,11.262-8.993c4.731-2.503,10.495-4.353,17.292-5.551c5.502-0.97,10.718-1.193,15.648-0.673
		c4.931,0.522,9.352,1.772,13.259,3.753c3.91,1.979,7.203,4.736,9.884,8.269c2.682,3.531,4.467,7.834,5.361,12.903
		c1.293,7.338,0.764,13.325-1.588,17.966c-2.353,4.643-5.619,8.499-9.807,11.572c-4.185,3.073-8.854,5.623-14.004,7.642
		c-5.149,2.021-9.896,4.108-14.246,6.264c-4.346,2.159-7.853,4.667-10.519,7.528c-2.665,2.863-3.599,6.559-2.801,11.089
		c0.456,2.589,1.569,4.786,3.33,6.587c1.765,1.804,3.845,3.188,6.239,4.156c2.396,0.969,4.924,1.58,7.581,1.833
		c2.659,0.257,5.121,0.183,7.386-0.217c3.131-0.552,5.998-1.475,8.605-2.768c2.609-1.295,4.827-2.908,6.654-4.845
		c1.828-1.933,3.246-4.158,4.246-6.671c1.005-2.514,1.421-5.199,1.249-8.062l20.066-3.537c1.103,6.258,0.911,11.797-0.574,16.62
		c-1.486,4.824-3.948,8.983-7.394,12.48c-3.442,3.502-7.721,6.368-12.832,8.603c-5.113,2.236-10.797,3.905-17.055,5.009
		c-5.502,0.97-10.824,1.212-15.972,0.729c-5.146-0.481-9.823-1.771-14.03-3.866c-4.206-2.095-7.785-5.052-10.739-8.869
		c-2.952-3.817-4.944-8.639-5.971-14.464c-0.97-5.502-0.897-10.296,0.217-14.388c1.115-4.089,2.928-7.69,5.438-10.803
		c2.512-3.111,5.493-5.749,8.949-7.917c3.456-2.166,7.058-4.137,10.805-5.909c3.749-1.771,7.401-3.445,10.961-5.019
		c3.561-1.572,6.721-3.214,9.477-4.924c2.76-1.71,4.87-3.613,6.335-5.705c1.467-2.095,1.953-4.542,1.459-7.35
		c-0.723-4.098-3.236-7.159-7.543-9.182c-4.303-2.021-9.638-2.473-16.004-1.35c-2.805,0.494-5.398,1.397-7.782,2.707
		c-2.382,1.312-4.385,2.887-6.007,4.729c-1.62,1.845-2.801,3.832-3.538,5.964c-0.734,2.132-0.904,4.33-0.505,6.596L297.477,208.741z
		"/>
</g>
<g enable-background="new    ">
	<path fill="#0000FF" d="M196.038,194.592l69.744-12.295l19.769,112.141l-71.039,12.523l-3.139-17.8l52.268-9.214l-5.22-29.613
		l-47.898,8.443l-3.081-17.477l47.898-8.443l-5.191-29.452l-50.973,8.985L196.038,194.592z"/>
</g>
</svg>
