<?xml version="1.0" encoding="utf-8"?>
<!-- Generator: Adobe Illustrator 16.0.0, SVG Export Plug-In . SVG Version: 6.00 Build 0)  -->
<!DOCTYPE svg PUBLIC "-//W3C//DTD SVG 1.1//EN" "http://www.w3.org/Graphics/SVG/1.1/DTD/svg11.dtd">
<svg version="1.1" id="Layer_1" xmlns="http://www.w3.org/2000/svg" xmlns:xlink="http://www.w3.org/1999/xlink" x="0px" y="0px"
	 width="412px" height="374px" viewBox="0 0 412 374" enable-background="new 0 0 412 374" xml:space="preserve">
<circle opacity="0.4" fill="#F0455C" cx="230" cy="187" r="171.5"/>
<circle fill="#F0455C" cx="231" cy="193" r="117.717"/>
<g>
	<g enable-background="new    ">
		<path fill="#0000FF" d="M78.027,171.392l14.521-79.275l19.132-3.373l17.313,98.212l-16.297,2.874l-11.917-67.601l-12.885,71.973
			l-11.479,2.024l-36.719-63.229l11.917,67.601l-16.156,2.849l-17.314-98.214l19.132-3.373L78.027,171.392z"/>
		<path fill="#0000FF" d="M196.482,89.868l-44.641,7.869l4.546,25.794l41.949-7.395l2.698,15.306l-41.95,7.395l4.573,25.936
			l45.776-8.07l2.749,15.59l-62.217,10.967l-17.312-98.213l61.082-10.768L196.482,89.868z"/>
		<path fill="#0000FF" d="M269.916,137.566l14.52-79.276l19.132-3.373l17.314,98.213l-16.298,2.873l-11.917-67.601l-12.884,71.973
			l-11.479,2.024l-36.718-63.229l11.916,67.601l-16.156,2.848l-17.313-98.213l19.132-3.373L269.916,137.566z"/>
	</g>
	<g enable-background="new    ">
		<path fill="#0000FF" d="M152.837,201.165l17.314,98.212l-16.44,2.898l-17.313-98.212L152.837,201.165z"/>
	</g>
	<g enable-background="new    ">
		<path fill="#0000FF" d="M58.291,319.081l18.874-46.289c-6.458-0.711-11.81-3.031-16.059-6.957
			c-4.248-3.929-6.997-9.435-8.246-16.521c-0.9-5.103-0.757-9.682,0.427-13.738c1.185-4.058,3.172-7.574,5.958-10.549
			c2.789-2.976,6.275-5.439,10.459-7.396c4.186-1.954,8.83-3.383,13.931-4.282l31.746-5.597l17.314,98.214l-16.44,2.897
			l-6.895-39.115l-13.747,2.423l-18.047,43.513L58.291,319.081z M83.242,229.346c-4.629,0.815-8.276,2.651-10.939,5.509
			c-2.661,2.857-3.569,6.692-2.719,11.512c0.899,5.102,2.886,8.503,5.962,10.2c3.077,1.7,7.307,2.072,12.692,1.123l18.424-3.248
			l-4.996-28.344L83.242,229.346z"/>
	</g>
	<g enable-background="new    ">
		<path fill="#0000FF" d="M260.063,210.293c-0.732-4.156-0.675-8.112,0.173-11.866c0.851-3.753,2.489-7.16,4.921-10.22
			c2.433-3.059,5.72-5.684,9.863-7.876c4.143-2.192,9.19-3.812,15.144-4.861c4.818-0.85,9.388-1.045,13.705-0.589
			c4.318,0.457,8.189,1.552,11.611,3.287c3.425,1.733,6.309,4.148,8.656,7.242c2.349,3.093,3.912,6.86,4.696,11.3
			c1.132,6.427,0.668,11.671-1.392,15.735c-2.061,4.065-4.921,7.442-8.588,10.135c-3.666,2.69-7.755,4.925-12.265,6.692
			c-4.51,1.77-8.668,3.599-12.477,5.486c-3.807,1.891-6.879,4.087-9.213,6.593c-2.334,2.508-3.153,5.744-2.453,9.712
			c0.398,2.267,1.373,4.191,2.916,5.769c1.546,1.58,3.367,2.792,5.464,3.64c2.099,0.849,4.312,1.384,6.641,1.605
			c2.327,0.226,4.483,0.16,6.467-0.19c2.743-0.482,5.253-1.292,7.537-2.424c2.285-1.134,4.228-2.547,5.827-4.243
			c1.602-1.692,2.844-3.642,3.719-5.842c0.881-2.202,1.245-4.554,1.094-7.062l17.574-3.098c0.966,5.48,0.798,10.331-0.503,14.557
			c-1.301,4.224-3.457,7.866-6.476,10.93c-3.015,3.066-6.763,5.577-11.238,7.534c-4.478,1.958-9.456,3.42-14.937,4.387
			c-4.819,0.85-9.479,1.061-13.988,0.639c-4.507-0.421-8.604-1.552-12.288-3.386c-3.683-1.835-6.817-4.425-9.404-7.768
			c-2.586-3.343-4.33-7.566-5.229-12.668c-0.85-4.818-0.786-9.017,0.19-12.601c0.977-3.581,2.563-6.735,4.762-9.462
			c2.199-2.724,4.811-5.034,7.838-6.933c3.026-1.897,6.182-3.623,9.463-5.176c3.284-1.55,6.481-3.017,9.6-4.395
			c3.119-1.377,5.887-2.815,8.3-4.312c2.417-1.499,4.266-3.165,5.548-4.997c1.285-1.835,1.711-3.979,1.278-6.438
			c-0.633-3.589-2.835-6.27-6.606-8.042c-3.769-1.77-8.441-2.166-14.016-1.182c-2.457,0.433-4.729,1.223-6.816,2.371
			c-2.086,1.149-3.84,2.527-5.261,4.141c-1.419,1.616-2.452,3.356-3.099,5.225c-0.642,1.866-0.791,3.792-0.441,5.776
			L260.063,210.293z"/>
	</g>
	<g enable-background="new    ">
		<path fill="#0000FF" d="M171.224,197.901l61.082-10.768l17.313,98.212l-62.216,10.968l-2.749-15.589l45.776-8.069l-4.572-25.936
			l-41.948,7.395l-2.699-15.307l41.949-7.394l-4.546-25.794l-44.642,7.869L171.224,197.901z"/>
	</g>
</g>
</svg>
