<?xml version="1.0" encoding="utf-8"?>
<!-- Generator: Adobe Illustrator 16.0.0, SVG Export Plug-In . SVG Version: 6.00 Build 0)  -->
<!DOCTYPE svg PUBLIC "-//W3C//DTD SVG 1.1//EN" "http://www.w3.org/Graphics/SVG/1.1/DTD/svg11.dtd">
<svg version="1.1" id="Ebene_1" xmlns="http://www.w3.org/2000/svg" xmlns:xlink="http://www.w3.org/1999/xlink" x="0px" y="0px"
	 width="230px" height="230px" viewBox="305.445 174.64 230 230" enable-background="new 305.445 174.64 230 230"
	 xml:space="preserve">
<path fill="none" stroke="#000000" stroke-width="7" stroke-linecap="round" stroke-linejoin="round" stroke-miterlimit="10" d="
	M459.458,334.629c-6.323,5.164-13.362,8.844-20.724,11.092"/>
<path fill="none" stroke="#000000" stroke-width="7" stroke-linecap="round" stroke-linejoin="round" stroke-miterlimit="10" d="
	M438.735,345.72c-22.724,6.891-48.388-0.051-64.369-19.588c-21.144-25.836-17.339-63.949,8.497-85.093
	c25.837-21.144,63.949-17.34,85.093,8.497c12.819,15.684,16.476,35.84,11.585,54.02"/>
<path fill="none" stroke="#000000" stroke-width="10" stroke-linecap="round" stroke-linejoin="round" stroke-miterlimit="10" d="
	M381.233,390.181"/>
<path fill="none" stroke="#000000" stroke-width="7" stroke-linecap="round" stroke-linejoin="round" stroke-miterlimit="10" d="
	M402.969,190.626c29.615-5.212,61.232,2.89,85.167,24.7c41.003,37.371,43.917,100.925,6.546,141.929
	c-37.372,41.002-100.926,43.916-141.929,6.545s-43.918-100.926-6.546-141.929c7.015-7.682,14.944-14.029,23.466-19.044"/>
</svg>
